<?xml version="1.0" standalone="no"?>
<!DOCTYPE svg PUBLIC "-//W3C//DTD SVG 20010904//EN"
 "http://www.w3.org/TR/2001/REC-SVG-20010904/DTD/svg10.dtd">
<svg version="1.0" xmlns="http://www.w3.org/2000/svg"
 width="1068.000000pt" height="1068.000000pt" viewBox="0 0 1068.000000 1068.000000"
 preserveAspectRatio="xMidYMid meet">
<metadata>
Created by potrace 1.11, written by Peter Selinger 2001-2013
</metadata>
<g transform="translate(0.000000,1068.000000) scale(0.100000,-0.100000)"
fill="#000000" stroke="none">
<path d="M5068 10675 c-2 -1 -48 -6 -103 -10 -199 -13 -244 -18 -430 -46 -112
-17 -128 -20 -170 -29 -22 -5 -56 -11 -76 -14 -48 -7 -299 -68 -414 -100 -184
-50 -478 -156 -680 -244 -82 -36 -454 -222 -485 -242 -14 -9 -65 -41 -115 -70
-234 -139 -551 -367 -735 -529 -316 -278 -552 -531 -808 -868 -20 -25 -22 -29
-105 -148 -289 -416 -530 -902 -687 -1387 -36 -111 -104 -353 -114 -403 -3
-11 -16 -72 -30 -135 -14 -63 -28 -137 -32 -165 -3 -27 -8 -52 -9 -55 -2 -3
-9 -44 -15 -90 -18 -126 -19 -130 -26 -200 -3 -36 -8 -78 -10 -95 -19 -139
-26 -707 -11 -890 10 -115 33 -335 42 -385 29 -176 39 -230 56 -315 12 -55 22
-107 24 -115 17 -88 97 -367 150 -525 84 -252 257 -643 372 -845 52 -91 84
-146 93 -160 5 -8 21 -35 36 -60 15 -25 67 -106 117 -180 76 -113 114 -166
219 -305 36 -47 243 -293 287 -340 110 -117 318 -319 416 -404 55 -47 114 -98
130 -113 17 -15 33 -28 36 -28 3 0 18 -10 32 -22 88 -79 444 -327 562 -394 11
-6 36 -20 55 -31 144 -84 208 -117 375 -199 340 -165 749 -313 1045 -379 8 -2
65 -15 125 -29 61 -14 166 -35 235 -46 163 -28 167 -28 220 -34 25 -3 65 -8
90 -11 25 -3 63 -7 85 -10 245 -27 799 -27 1048 0 18 2 57 6 88 10 31 3 65 7
75 9 11 2 44 7 74 11 145 18 380 65 560 111 159 42 151 39 170 47 8 3 38 11
65 18 28 6 55 15 60 18 6 3 15 6 20 7 20 3 202 68 300 106 224 89 503 220 665
313 36 21 85 49 110 63 121 69 517 336 550 372 3 3 52 43 110 90 509 411 965
951 1287 1525 51 90 201 392 230 460 14 33 31 74 38 90 35 76 98 245 149 400
52 155 147 518 160 606 3 20 8 42 10 50 3 8 7 30 10 49 3 19 8 46 10 60 3 14
14 88 25 165 19 136 23 171 38 360 15 183 8 703 -12 900 -17 163 -22 197 -45
335 -11 63 -22 129 -25 145 -3 17 -12 62 -20 100 -8 39 -17 79 -19 90 -38 192
-158 570 -266 835 -59 144 -235 509 -285 590 -12 19 -46 76 -75 125 -292 491
-693 962 -1140 1339 -114 96 -326 257 -430 326 -36 24 -66 47 -68 52 -2 4 -8
8 -13 8 -5 0 -43 23 -85 50 -41 28 -77 50 -79 50 -2 0 -47 26 -102 58 -111 67
-381 204 -493 252 -41 17 -88 38 -105 45 -76 34 -246 98 -370 140 -65 21 -209
67 -225 71 -8 2 -76 19 -150 38 -126 32 -296 69 -365 80 -16 3 -70 12 -120 20
-102 18 -128 21 -280 36 -60 6 -128 13 -150 16 -41 6 -671 14 -677 9z"/>
</g>
</svg>
